<svg width="87" height="86" viewBox="0 0 87 86" fill="none" xmlns="http://www.w3.org/2000/svg">
<path id="Vector" d="M72.8152 33.6252C73.4406 33.9363 74.0661 33.6252 74.3788 33.3142L85.9497 21.8061C86.2625 21.495 86.2625 21.184 86.2625 20.562C86.2625 19.9399 85.9497 19.6289 85.9497 19.3178L81.5715 14.9634C80.9461 14.3413 80.0079 14.3413 79.3825 14.9634L71.2515 23.3612L64.3715 21.495L62.1825 14.3413L70.3134 6.25454C70.9388 5.63248 70.9388 4.69939 70.3134 4.07732L65.9352 -0.277106C65.3097 -0.899168 64.3716 -0.899168 63.7461 -0.277106L52.1752 11.231C51.8625 11.5421 51.5497 12.1641 51.8625 12.7862L54.3643 22.1171L41.8552 34.5583L19.6515 12.4752C19.6515 11.8531 19.9643 11.231 19.9643 10.609C19.9643 9.36485 19.3388 8.12072 18.7134 7.18763L11.8334 0.655986C11.5206 0.344955 11.2079 0.033925 10.8952 0.033925C10.5825 0.033925 9.957 0.344955 9.64427 0.655986L0.887906 9.36485C0.575179 9.67588 0.575179 9.98691 0.575179 10.609C0.575179 11.231 0.575179 11.231 0.887906 11.5421L7.45518 18.0737C8.39336 19.0068 9.64427 19.3178 10.8952 19.3178C11.5206 19.3178 12.1461 19.0068 12.7715 18.6958L35.2879 41.09L23.0915 53.2202L13.7097 50.7319C13.0843 50.7319 12.4588 50.7319 12.1461 51.043L0.575179 62.5511C0.262452 62.8621 0.262451 63.1732 0.262451 63.7952C0.262451 64.4173 0.575179 64.7283 0.575179 65.0394L4.95336 69.3938C5.57881 70.0158 6.517 70.0158 7.14245 69.3938L14.9606 61.307L21.8406 63.1732L24.0297 70.3269L15.8988 78.4137C15.2734 79.0357 15.2734 79.9688 15.8988 80.5909L20.277 84.9453C20.5897 85.2563 20.9025 85.2563 21.5279 85.2563C22.1534 85.2563 22.4661 85.2563 22.7788 84.9453L34.3497 73.4372C34.6625 73.1262 34.9752 72.5041 34.6625 71.882L32.1606 62.5511L39.9788 54.7753L43.1061 57.8856C43.4188 58.1967 43.7315 58.1967 44.357 58.1967C44.9824 58.1967 45.2952 58.1967 45.6079 57.8856C46.2334 57.2636 47.1715 57.2636 47.797 57.8856C48.1097 58.1967 48.1097 58.5077 48.1097 59.1298C48.1097 59.4408 47.797 60.0629 47.797 60.0629C47.797 60.0629 47.4843 60.3739 47.4843 60.6849V61.929C47.4843 62.2401 47.797 62.2401 47.797 62.5511L67.8115 82.4571C69.3752 84.0122 71.2515 84.6343 73.4406 84.6343C75.6297 84.6343 77.5061 84.0122 79.0697 82.4571L83.4479 78.1026C85.0115 76.5475 85.637 74.6813 85.637 72.5041C85.637 70.3269 84.6988 68.4607 83.4479 66.9055L63.4334 46.9996C62.8079 46.3775 61.8697 46.3775 61.2443 46.9996C60.6188 47.6216 59.6806 47.6216 59.0552 46.9996C58.4297 46.3775 58.4297 45.4444 59.0552 44.8223C59.3679 44.5113 59.3679 44.2003 59.3679 43.5782C59.3679 42.9562 59.3679 42.6451 59.0552 42.3341L55.9279 39.2238L64.0588 31.137L72.8152 33.6252ZM81.8843 72.1931C81.8843 73.4372 81.2588 74.6813 80.6334 75.6144L75.9425 79.6578C74.0661 81.524 71.2515 81.524 69.3752 79.6578L50.6115 60.996L56.2406 55.3974L61.8697 49.7988L80.6334 68.4607C81.2588 69.7048 81.8843 70.9489 81.8843 72.1931ZM9.64427 15.8965L4.32791 10.609L10.8952 4.07732L16.5243 9.67588C16.837 9.98691 16.837 10.2979 16.837 10.92C16.837 11.231 16.5243 11.8531 16.5243 12.1641L11.8334 15.8965C11.2079 16.5186 10.2697 16.5186 9.64427 15.8965ZM17.4625 14.9634L40.6043 37.9797L46.2334 43.5782L44.0443 45.7554L38.4152 40.1569L15.2734 17.1406L17.4625 14.9634ZM28.4079 62.2401L30.9097 71.571L21.2152 81.524L19.0261 79.3468L26.5315 71.882C26.8443 71.571 27.157 70.9489 26.8443 70.3269L24.6552 61.618C24.6552 60.996 24.0297 60.6849 23.4043 60.3739L14.9606 58.1967C14.3352 58.1967 13.7097 58.1967 13.397 58.5077L5.89154 65.9724L3.70245 64.1063L13.7097 54.1533L23.0915 56.6415C23.717 56.6415 24.3425 56.6415 24.6552 56.3305L37.477 43.5782L41.8552 47.9327L38.4152 51.354C38.4152 51.354 38.4152 51.665 38.1025 51.665L28.7206 60.996C28.4079 61.307 28.4079 61.929 28.4079 62.2401ZM56.2406 48.8658C56.5534 49.1768 57.1788 49.4878 57.4915 49.7988L50.6115 56.6415C50.2988 56.0195 49.9861 55.7084 49.6734 55.3974C49.3606 55.0864 48.7352 54.7753 48.4225 54.4643L55.3025 47.6216C55.6152 48.2437 55.9279 48.5547 56.2406 48.8658ZM54.9897 43.5782L44.0443 54.4643L41.8552 52.2871L52.8006 41.401L54.9897 43.5782ZM61.557 28.3377L51.8625 37.9797C51.8625 37.9797 51.5497 37.9797 51.5497 38.2907L48.1097 41.712L43.7315 37.3576L56.8661 24.2943C57.1788 23.9833 57.4915 23.3612 57.1788 22.7392L54.677 13.4082L64.997 3.14423L67.1861 5.32145L59.6806 12.7862C59.3679 13.0972 59.0552 13.7193 59.3679 14.3413L61.557 23.0502C61.557 23.6723 62.1825 23.9833 62.8079 24.2943L71.5643 26.4715C72.1897 26.4715 72.8152 26.4715 73.1279 26.1605L80.6334 18.6958L82.5097 20.562L72.5025 30.5149L63.1206 28.0267C62.8079 27.7157 62.1825 27.7157 61.557 28.3377Z" fill="url(#paint0_linear_181_61)"/>
<defs>
<linearGradient id="paint0_linear_181_61" x1="0.500001" y1="4" x2="86.5" y2="78" gradientUnits="userSpaceOnUse">
<stop stop-color="#D39F16"/>
<stop offset="0.415625" stop-color="#E8B13C"/>
<stop offset="0.5" stop-color="#EC930C" stop-opacity="0.85"/>
<stop offset="1" stop-color="#E7770F" stop-opacity="0.49"/>
</linearGradient>
</defs>
</svg>
