<svg width="85" height="86" viewBox="0 0 85 86" fill="none" xmlns="http://www.w3.org/2000/svg">
<path id="Vector" d="M48.8172 0L48.7312 1.24961C48.6911 1.8462 48.3757 2.28423 47.7651 2.68733C47.0731 3.1113 46.2763 3.36118 45.4515 3.41291H37.9C32.8743 3.41291 28.7946 7.26386 28.7946 11.9936V18.4324C28.7946 18.6125 28.8004 18.6608 28.8004 18.5077C28.8004 18.4163 28.7946 18.4029 28.7946 18.591V21.4046C28.7894 21.4708 28.7894 21.5373 28.7946 21.6035V27.2764C28.7946 30.8237 30.208 34.0324 32.4672 36.5423V38.746L23.8263 30.6463C25.1794 26.704 24.3882 22.3613 21.2174 19.3864C20.1139 18.3527 18.8037 17.5333 17.3617 16.9754C15.9197 16.4174 14.3744 16.1317 12.8144 16.1347V16.1294C11.2548 16.1261 9.70981 16.4116 8.26826 16.9697C6.82672 17.5277 5.51699 18.3472 4.4143 19.381C2.19056 21.4725 0.941895 24.3048 0.941895 27.2576C0.941895 30.2104 2.19056 33.0428 4.4143 35.1342C7.58512 38.101 12.2181 38.8427 16.4181 37.5743L26.4638 46.9907L16.2404 52.4594C14.2058 53.5409 12.5132 55.1083 11.3348 57.0021C10.1564 58.8959 9.53432 61.0486 9.53176 63.241V86H78.338V63.241C78.338 58.7881 75.7778 54.6684 71.6351 52.4594H71.6294L61.383 46.9773L71.552 37.4372C75.7291 38.6976 80.3362 37.9532 83.4841 35.0025C85.0221 33.5603 86.1052 31.7479 86.6141 29.7653C87.1231 27.7827 87.038 25.7069 86.3682 23.7668C86.293 23.5474 86.1588 23.3499 85.9787 23.1932C85.7985 23.0365 85.5784 22.9259 85.3394 22.8719C85.1005 22.8179 84.8508 22.8225 84.6142 22.885C84.3777 22.9476 84.1623 23.0662 83.9887 23.2293L77.2744 29.523L73.0973 29.0877L72.6385 25.1722L79.3414 18.8893C79.5154 18.7266 79.6419 18.5247 79.7087 18.3029C79.7754 18.0812 79.7803 17.8471 79.7227 17.6231C79.6651 17.3992 79.5471 17.1928 79.3799 17.0239C79.2127 16.8551 79.002 16.7293 78.768 16.6588C76.7003 16.0315 74.4879 15.9515 72.3748 16.4277V16.433C70.2594 16.906 68.3247 17.9179 66.7843 19.3569C63.645 22.3075 62.8595 26.6207 64.1983 30.5308L55.4026 38.7782V36.7788C57.8936 34.1634 59.2748 30.7825 59.2844 27.2764V18.591C59.2844 18.4432 59.2787 18.4566 59.2787 18.5238C59.2787 18.5775 59.2844 18.6098 59.2844 18.4485V8.92732L59.2672 8.84401C58.9289 6.43079 58.1405 4.25405 56.6354 2.62015C55.1302 0.983564 52.8739 -0.00268733 50.1561 0.0107493V0H48.8172ZM50.6779 2.88619C52.312 3.00444 53.5849 3.41022 54.4622 4.36154C55.4513 5.43647 56.125 7.09724 56.4175 9.15305V18.4378C56.4175 18.298 56.4117 18.3303 56.4117 18.4969C56.4122 18.5247 56.4141 18.5525 56.4175 18.5802V19.3515C55.6196 18.9288 54.7526 18.6328 53.8516 18.4754C51.8505 18.1314 49.7719 18.2819 47.7708 18.3599C45.7697 18.4378 43.8546 18.4485 42.2835 18.0454C40.7125 17.6423 39.4682 16.9168 38.4304 15.2372C38.2975 15.0229 38.104 14.8472 37.8713 14.7296C37.6385 14.612 37.3756 14.557 37.1116 14.5707C36.81 14.5858 36.5213 14.6899 36.2865 14.8679C36.0517 15.046 35.883 15.289 35.8043 15.5623C35.8415 15.436 35.5606 15.9869 35.0818 16.5163C34.5151 17.1301 33.905 17.7074 33.2556 18.2443C32.7109 18.6958 32.1747 19.0639 31.6616 19.3999V18.5802C31.6616 18.728 31.6644 18.6796 31.6673 18.5077C31.6673 18.3007 31.6616 18.3142 31.6616 18.4324V11.9936C31.6616 8.69621 34.4253 6.10024 37.9 6.10024H45.6436C46.9451 6.01962 48.284 5.63265 49.4164 4.88557C50.0701 4.4556 50.2765 3.59565 50.6779 2.88619ZM37.3725 18.0911C38.6053 19.3165 40.0015 20.241 41.5295 20.6333C43.6568 21.1816 45.8471 21.1278 47.8941 21.0472C49.9411 20.9666 51.8562 20.8671 53.3355 21.1197C54.7231 21.3562 55.6606 21.8077 56.4175 22.8934V27.2657C56.4175 33.7744 50.913 38.9609 44.041 38.9609C37.1689 38.9609 31.6616 33.7744 31.6616 27.2657V22.5628C32.0343 22.4016 32.3869 22.2001 32.7653 21.977C33.5595 21.5067 34.3794 20.9048 35.1592 20.2571C35.9419 19.6041 36.673 18.9108 37.2664 18.255C37.3151 18.2013 37.3237 18.1395 37.3725 18.0911ZM12.8201 18.8006C15.1223 18.8006 17.4244 19.6336 19.1904 21.289C20.4741 22.4913 21.3404 24.0289 21.676 25.7005C22.0116 27.3721 21.8008 29.0997 21.0711 30.6571C20.956 30.9042 20.9229 31.1781 20.976 31.4432C21.0292 31.7082 21.1662 31.9521 21.3693 32.1432L32.4672 42.5458V43.7793L30.059 45.0666C29.8651 45.123 29.6863 45.2173 29.5343 45.3434L29.0469 45.6067L18.015 35.2712C17.811 35.0793 17.5499 34.9497 17.266 34.8994C16.9821 34.849 16.6885 34.8803 16.4239 34.9891C14.7647 35.6716 12.9244 35.8693 11.1435 35.5562C9.36262 35.2431 7.72384 34.4339 6.44121 33.2342H6.43548C5.59702 32.4506 4.93188 31.5196 4.47822 30.4945C4.02455 29.4693 3.7913 28.3703 3.79183 27.2605C3.79236 26.1507 4.02667 25.0519 4.48132 24.0272C4.93597 23.0024 5.60201 22.0719 6.44121 21.289C7.27715 20.5008 8.27103 19.8752 9.36574 19.4481C10.4604 19.0211 11.6344 18.801 12.8201 18.8006ZM75.0525 19.1096L70.1214 23.7318C69.9686 23.8745 69.8521 24.0477 69.7806 24.2385C69.7091 24.4293 69.6845 24.6327 69.7085 24.8336L70.3765 30.4528C70.4128 30.7554 70.5577 31.0375 70.7874 31.2528C71.0171 31.4681 71.318 31.6039 71.6409 31.638L77.6442 32.2641C77.8574 32.2862 78.0732 32.2631 78.2757 32.1966C78.4781 32.1301 78.662 32.0218 78.8139 31.8798L83.745 27.2576C83.7221 29.4128 83.1372 31.5278 81.4572 33.1026C80.1853 34.2958 78.5585 35.1011 76.7899 35.4128C75.0214 35.7244 73.1937 35.5281 71.5462 34.8493C71.2813 34.7409 70.9876 34.71 70.7036 34.7609C70.4197 34.8117 70.1587 34.9418 69.9551 35.1342L58.8028 45.596L55.4026 43.7793V42.5781L66.6581 32.0276C66.8628 31.8364 67.0011 31.5917 67.0548 31.3256C67.1086 31.0594 67.0752 30.7842 66.9592 30.5362C66.2365 28.9941 66.027 27.2835 66.3579 25.628C66.6888 23.9725 67.5448 22.4491 68.8141 21.2568C70.4969 19.6847 72.7504 19.1338 75.0525 19.1096ZM14.4027 20.5527C14.2838 20.5551 14.1653 20.5714 14.05 20.6011L8.33338 22.0979C8.09024 22.1618 7.86773 22.2841 7.68811 22.4525C7.5085 22.6208 7.37808 22.8294 7.30989 23.0573L5.71875 28.4159C5.65125 28.6437 5.64829 28.8827 5.71017 29.1091C5.77205 29.3354 5.8966 29.5412 6.07138 29.7058L10.194 33.5755C10.3702 33.7403 10.5906 33.8576 10.8332 33.9156C11.0758 33.9736 11.3319 33.9703 11.5759 33.9061L17.2925 32.4119C17.4799 32.3642 17.6559 32.2818 17.8101 32.1696C17.9643 32.0574 18.0935 31.9177 18.1899 31.7589C18.2471 31.661 18.2914 31.5572 18.3218 31.4498L19.9072 26.0913C19.9747 25.8635 19.9776 25.6244 19.9157 25.3981C19.8539 25.1717 19.7293 24.966 19.5545 24.8014L15.4348 20.9316C15.3 20.8068 15.1392 20.7091 14.9619 20.6445C14.7846 20.5799 14.5945 20.5496 14.4027 20.5554V20.5527ZM13.9669 23.3986L16.9284 26.18L15.7874 30.0336L11.6648 31.1086L8.69748 28.3272L9.84425 24.4735L13.9669 23.3986ZM35.3341 39.0604C37.8428 40.7259 40.8343 41.6336 43.9084 41.6619C46.9825 41.6903 49.9925 40.8379 52.5357 39.2189V41.659C52.5357 42.5082 51.8619 43.4676 50.3195 44.2926C48.7742 45.1203 46.4836 45.69 43.9349 45.69C41.3833 45.69 39.0955 45.1203 37.5502 44.2926C36.0078 43.4676 35.3341 42.5082 35.3341 41.659V39.0604ZM34.689 45.6846C35.1277 46.034 35.6122 46.3484 36.1282 46.6252C38.2182 47.7431 40.9447 48.3774 43.9349 48.3774C46.9279 48.3774 49.6515 47.7431 51.7415 46.6252C52.2576 46.3484 52.7449 46.034 53.1807 45.6846L55.5259 46.9396L50.8384 64.5014H36.8192L32.1604 47.0391L34.689 45.6846ZM58.1118 48.3236L63.0515 50.9653L58.0946 69.5508C58.0935 69.5634 58.0925 69.5759 58.0918 69.5885C57.6847 71.3164 56.4949 72.5633 54.9037 72.5633C53.2552 72.5633 52.1228 71.6147 52.3178 70.0534L58.1118 48.3236ZM29.5716 48.4257L35.3398 70.0534C35.5348 71.612 34.4023 72.5633 32.7539 72.5633C31.1627 72.5633 29.9729 71.3164 29.5658 69.5885C29.5642 69.5741 29.5623 69.5598 29.5601 69.5455L24.6347 51.0647L29.5716 48.4257ZM65.6432 52.3492L70.2131 54.7947C71.8082 55.6408 73.1352 56.8684 74.0589 58.3523C74.9826 59.8361 75.4699 61.523 75.4711 63.241V83.3127H66.8703V65.845C66.8703 65.4887 66.7193 65.1469 66.4504 64.8949C66.1816 64.6429 65.817 64.5014 65.4368 64.5014H62.4007L65.6432 52.3492ZM22.0402 52.4513L25.254 64.5014H22.4329C22.0528 64.5014 21.6881 64.6429 21.4193 64.8949C21.1505 65.1469 20.9995 65.4887 20.9995 65.845V83.3127H12.3987V63.241C12.3987 59.7501 14.3998 56.5307 17.6566 54.7974H17.6624L22.0402 52.4513ZM32.1805 67.1833C31.8003 67.1833 31.4357 67.3249 31.1669 67.5769C30.898 67.8288 30.747 68.1706 30.747 68.527C30.747 68.8833 30.898 69.2251 31.1669 69.4771C31.4357 69.7291 31.8003 69.8706 32.1805 69.8706C32.5607 69.8706 32.9253 69.7291 33.1941 69.4771C33.4629 69.2251 33.6139 68.8833 33.6139 68.527C33.6139 68.1706 33.4629 67.8288 33.1941 67.5769C32.9253 67.3249 32.5607 67.1833 32.1805 67.1833ZM55.4743 67.1833C55.0941 67.1833 54.7295 67.3249 54.4606 67.5769C54.1918 67.8288 54.0408 68.1706 54.0408 68.527C54.0408 68.8833 54.1918 69.2251 54.4606 69.4771C54.7295 69.7291 55.0941 69.8706 55.4743 69.8706C55.8544 69.8706 56.219 69.7291 56.4879 69.4771C56.7567 69.2251 56.9077 68.8833 56.9077 68.527C56.9077 68.1706 56.7567 67.8288 56.4879 67.5769C56.219 67.3249 55.8544 67.1833 55.4743 67.1833ZM23.8664 67.1887H25.9707L26.7677 70.1636C27.387 72.7971 29.5802 75.2453 32.7539 75.2453C35.8616 75.2453 38.5967 72.7944 38.1896 69.7013C38.1835 69.6471 38.1739 69.5933 38.1609 69.5401L37.5359 67.1887H50.1217L49.4967 69.5508C49.4839 69.6022 49.4743 69.6543 49.468 69.7067C49.0609 72.7998 51.796 75.2507 54.9037 75.2507C58.0774 75.2507 60.2706 72.7998 60.8899 70.1716L61.684 67.1887H64.0034V83.3127H23.8664V67.1887Z" fill="url(#paint0_linear_181_74)"/>
<defs>
<linearGradient id="paint0_linear_181_74" x1="0.942449" y1="43" x2="81.2106" y2="43" gradientUnits="userSpaceOnUse">
<stop stop-color="#B88603"/>
<stop offset="1" stop-color="#EE4B17"/>
</linearGradient>
</defs>
</svg>
