<svg width="87" height="86" viewBox="0 0 87 86" fill="none" xmlns="http://www.w3.org/2000/svg">
<path id="Vector" d="M16.2437 0.00308762C16.0554 0.00500698 15.8693 0.045553 15.6962 0.122301C15.5231 0.199049 15.3665 0.310533 15.2353 0.450273C15.1042 0.590013 15.0011 0.755351 14.9321 0.936533C14.8631 1.11771 14.8295 1.31114 14.8333 1.50583V5.97533H6.23333C3.08 5.97533 0.5 8.64299 0.5 11.9033V62.289C0.5 65.5493 3.08 68.2168 6.23333 68.2168H41.3901C43.9472 78.4273 52.9027 86 63.5667 86C76.2144 86 86.5 75.3686 86.5 62.289C86.5 49.2124 76.2144 38.5781 63.5667 38.5781C62.592 38.5781 61.6403 38.6581 60.7 38.7796V11.9033C60.7 8.64299 58.12 5.97533 54.9667 5.97533H46.3667V1.50583C46.3667 1.11279 46.2157 0.735788 45.9469 0.457871C45.6781 0.179954 45.3135 0.0238912 44.9333 0.0238912C44.5532 0.0238912 44.1886 0.179954 43.9198 0.457871C43.651 0.735788 43.5 1.11279 43.5 1.50583V5.97533H17.7V1.50583C17.7031 1.30722 17.6675 1.10998 17.5955 0.92586C17.5234 0.741739 17.4162 0.574448 17.2804 0.433992C17.1445 0.293537 16.9827 0.182722 16.8047 0.108191C16.6266 0.0336593 16.4358 -0.000116365 16.2437 0.00308762ZM6.23333 8.93938H14.8333V13.391C14.8047 15.3946 17.7287 15.3946 17.7 13.391V8.93938H43.5V13.391C43.4713 15.3946 46.3953 15.3946 46.3667 13.391V8.93938H54.9667C56.5806 8.93938 57.8333 10.2376 57.8333 11.9033V17.7568H3.36667V11.9033C3.36667 10.2376 4.6194 8.93938 6.23333 8.93938ZM3.36667 20.8719H57.8333V39.3545C55.798 39.8999 53.8773 40.7177 52.1 41.7847V40.06C52.1 39.667 51.949 39.2898 51.6802 39.0119C51.4114 38.734 51.0468 38.5781 50.6667 38.5781H44.9333C44.5532 38.5781 44.1886 38.734 43.9198 39.0119C43.651 39.2898 43.5 39.667 43.5 40.06V45.9878C43.5 46.3808 43.651 46.7576 43.9198 47.0355C44.1886 47.3134 44.5532 47.4697 44.9333 47.4697H45.6844C42.4128 51.6679 40.6303 56.8977 40.6333 62.289C40.6383 63.2802 40.7034 64.2701 40.8283 65.2529H6.23333C4.6194 65.2529 3.36667 63.9577 3.36667 62.289V20.8719ZM10.5333 26.7226C10.1532 26.7226 9.78862 26.8785 9.51981 27.1564C9.25101 27.4343 9.1 27.8115 9.1 28.2045V34.1323C9.1 34.5253 9.25101 34.9021 9.51981 35.18C9.78862 35.458 10.1532 35.6142 10.5333 35.6142H16.2667C16.6468 35.6142 17.0114 35.458 17.2802 35.18C17.549 34.9021 17.7 34.5253 17.7 34.1323V28.2045C17.7 27.8115 17.549 27.4343 17.2802 27.1564C17.0114 26.8785 16.6468 26.7226 16.2667 26.7226H10.5333ZM22 26.7226C21.6199 26.7226 21.2553 26.8785 20.9865 27.1564C20.7177 27.4343 20.5667 27.8115 20.5667 28.2045V34.1323C20.5667 34.5253 20.7177 34.9021 20.9865 35.18C21.2553 35.458 21.6199 35.6142 22 35.6142H27.7333C28.1135 35.6142 28.4781 35.458 28.7469 35.18C29.0157 34.9021 29.1667 34.5253 29.1667 34.1323V28.2045C29.1667 27.8115 29.0157 27.4343 28.7469 27.1564C28.4781 26.8785 28.1135 26.7226 27.7333 26.7226H22ZM33.4667 26.7226C33.0865 26.7226 32.7219 26.8785 32.4531 27.1564C32.1843 27.4343 32.0333 27.8115 32.0333 28.2045V34.1323C32.0333 34.5253 32.1843 34.9021 32.4531 35.18C32.7219 35.458 33.0865 35.6142 33.4667 35.6142H39.2C39.5801 35.6142 39.9447 35.458 40.2135 35.18C40.4823 34.9021 40.6333 34.5253 40.6333 34.1323V28.2045C40.6333 27.8115 40.4823 27.4343 40.2135 27.1564C39.9447 26.8785 39.5801 26.7226 39.2 26.7226H33.4667ZM44.9333 26.7226C44.5532 26.7226 44.1886 26.8785 43.9198 27.1564C43.651 27.4343 43.5 27.8115 43.5 28.2045V34.1323C43.5 34.5253 43.651 34.9021 43.9198 35.18C44.1886 35.458 44.5532 35.6142 44.9333 35.6142H50.6667C51.0468 35.6142 51.4114 35.458 51.6802 35.18C51.949 34.9021 52.1 34.5253 52.1 34.1323V28.2045C52.1 27.8115 51.949 27.4343 51.6802 27.1564C51.4114 26.8785 51.0468 26.7226 50.6667 26.7226H44.9333ZM11.9667 29.6865H14.8333V32.6503H11.9667V29.6865ZM23.4333 29.6865H26.3V32.6503H23.4333V29.6865ZM34.9 29.6865H37.7667V32.6503H34.9V29.6865ZM46.3667 29.6865H49.2333V32.6503H46.3667V29.6865ZM10.5333 38.5781C10.1532 38.5781 9.78862 38.734 9.51981 39.0119C9.25101 39.2898 9.1 39.667 9.1 40.06V45.9878C9.1 46.3808 9.25101 46.7576 9.51981 47.0355C9.78862 47.3134 10.1532 47.4697 10.5333 47.4697H16.2667C16.6468 47.4697 17.0114 47.3134 17.2802 47.0355C17.549 46.7576 17.7 46.3808 17.7 45.9878V40.06C17.7 39.667 17.549 39.2898 17.2802 39.0119C17.0114 38.734 16.6468 38.5781 16.2667 38.5781H10.5333ZM22 38.5781C21.6199 38.5781 21.2553 38.734 20.9865 39.0119C20.7177 39.2898 20.5667 39.667 20.5667 40.06V45.9878C20.5667 46.3808 20.7177 46.7576 20.9865 47.0355C21.2553 47.3134 21.6199 47.4697 22 47.4697H27.7333C28.1135 47.4697 28.4781 47.3134 28.7469 47.0355C29.0157 46.7576 29.1667 46.3808 29.1667 45.9878V40.06C29.1667 39.667 29.0157 39.2898 28.7469 39.0119C28.4781 38.734 28.1135 38.5781 27.7333 38.5781H22ZM33.4667 38.5781C33.0865 38.5781 32.7219 38.734 32.4531 39.0119C32.1843 39.2898 32.0333 39.667 32.0333 40.06V45.9878C32.0333 46.3808 32.1843 46.7576 32.4531 47.0355C32.7219 47.3134 33.0865 47.4697 33.4667 47.4697H39.2C39.5801 47.4697 39.9447 47.3134 40.2135 47.0355C40.4823 46.7576 40.6333 46.3808 40.6333 45.9878V40.06C40.6333 39.667 40.4823 39.2898 40.2135 39.0119C39.9447 38.734 39.5801 38.5781 39.2 38.5781H33.4667ZM11.9667 41.542H14.8333V44.5058H11.9667V41.542ZM23.4333 41.542H26.3V44.5058H23.4333V41.542ZM34.9 41.542H37.7667V44.5058H34.9V41.542ZM46.3667 41.542H49.2333V43.7942C48.9581 44.0224 48.6973 44.2657 48.4307 44.5058H46.3667V41.542ZM63.5667 41.542C74.6664 41.542 83.6333 50.8129 83.6333 62.289C83.6333 73.7651 74.6664 83.0361 63.5667 83.0361C52.4669 83.0361 43.5 73.7651 43.5 62.289C43.5 50.8129 52.4669 41.542 63.5667 41.542ZM62.1333 44.5058V58.1157C60.4735 58.7351 59.2667 60.3714 59.2667 62.289C59.2667 64.7283 61.2074 66.7348 63.5667 66.7348C65.4185 66.7348 66.9981 65.4841 67.5972 63.771H75.0333V60.8071H67.5972C67.3819 60.1889 67.0376 59.6271 66.5887 59.162C66.1398 58.6969 65.5974 58.3396 65 58.1157V44.5058H62.1333ZM10.5333 50.4336C10.1532 50.4336 9.78862 50.5894 9.51981 50.8674C9.25101 51.1453 9.1 51.5225 9.1 51.9155V57.8432C9.1 58.2363 9.25101 58.6131 9.51981 58.891C9.78862 59.1689 10.1532 59.3252 10.5333 59.3252H16.2667C16.6468 59.3252 17.0114 59.1689 17.2802 58.891C17.549 58.6131 17.7 58.2363 17.7 57.8432V51.9155C17.7 51.5225 17.549 51.1453 17.2802 50.8674C17.0114 50.5894 16.6468 50.4336 16.2667 50.4336H10.5333ZM22 50.4336C21.6199 50.4336 21.2553 50.5894 20.9865 50.8674C20.7177 51.1453 20.5667 51.5225 20.5667 51.9155V57.8432C20.5667 58.2363 20.7177 58.6131 20.9865 58.891C21.2553 59.1689 21.6199 59.3252 22 59.3252H27.7333C28.1135 59.3252 28.4781 59.1689 28.7469 58.891C29.0157 58.6131 29.1667 58.2363 29.1667 57.8432V51.9155C29.1667 51.5225 29.0157 51.1453 28.7469 50.8674C28.4781 50.5894 28.1135 50.4336 27.7333 50.4336H22ZM33.4667 50.4336C33.0865 50.4336 32.7219 50.5894 32.4531 50.8674C32.1843 51.1453 32.0333 51.5225 32.0333 51.9155V57.8432C32.0333 58.2363 32.1843 58.6131 32.4531 58.891C32.7219 59.1689 33.0865 59.3252 33.4667 59.3252H39.2C39.5801 59.3252 39.9447 59.1689 40.2135 58.891C40.4823 58.6131 40.6333 58.2363 40.6333 57.8432V51.9155C40.6333 51.5225 40.4823 51.1453 40.2135 50.8674C39.9447 50.5894 39.5801 50.4336 39.2 50.4336H33.4667ZM11.9667 53.3974H14.8333V56.3613H11.9667V53.3974ZM23.4333 53.3974H26.3V56.3613H23.4333V53.3974ZM34.9 53.3974H37.7667V56.3613H34.9V53.3974ZM63.5667 60.8071C64.3751 60.8071 65 61.4532 65 62.289C65 63.1249 64.3751 63.771 63.5667 63.771C63.3777 63.7738 63.1901 63.7374 63.015 63.6639C62.8398 63.5904 62.6808 63.4811 62.5471 63.343C62.4135 63.2048 62.308 63.0403 62.2369 62.8592C62.1659 62.6782 62.1306 62.4844 62.1333 62.289C62.1333 61.4532 62.7583 60.8071 63.5667 60.8071Z" fill="url(#paint0_linear_181_67)"/>
<defs>
<linearGradient id="paint0_linear_181_67" x1="0.5" y1="43.0001" x2="80.7667" y2="43.0001" gradientUnits="userSpaceOnUse">
<stop stop-color="#A64702"/>
<stop offset="1" stop-color="#B88603"/>
</linearGradient>
</defs>
</svg>
