<svg width="87" height="86" viewBox="0 0 87 86" fill="none" xmlns="http://www.w3.org/2000/svg">
<g id="Icon 2" clip-path="url(#clip0_181_52)">
<path id="Vector" fill-rule="evenodd" clip-rule="evenodd" d="M11.25 5.375V84.9987H46.4658V81.8138H14.7723V8.55995H64.0842V19.72C64.0842 20.1424 64.2698 20.5474 64.6 20.8461C64.9303 21.1447 65.3783 21.3125 65.8453 21.3125H78.1733V51.8052H81.6956V19.8219H81.6886C81.7055 19.5962 81.669 19.3698 81.5815 19.1578C81.494 18.9458 81.3576 18.7531 81.1814 18.5925L67.0922 5.85274C66.925 5.70188 66.726 5.58297 66.507 5.50309C66.2879 5.4232 66.0533 5.38397 65.8172 5.38774C65.6403 5.38835 65.4646 5.41305 65.2959 5.46099V5.375H11.25ZM67.6065 10.8213L75.6831 18.1275H67.6065V10.8213ZM21.7077 14.9394V18.1244H60.5619V14.9394H21.7077ZM22.0035 24.5006V27.6856H71.1288V24.5006H22.0035ZM21.8168 34.0555V37.2404H71.1288V34.0555H21.8168ZM21.8168 43.6103V46.7953H71.1288V43.6103H21.8168ZM21.8168 53.1652V56.3501H71.1288V53.1652H21.8168ZM75.9226 54.7513C75.4555 54.7513 75.0076 54.919 74.6773 55.2177C74.347 55.5163 74.1615 55.9214 74.1615 56.3437V61.2454C74.1613 61.256 74.1613 61.2666 74.1615 61.2772C74.1615 61.532 73.929 62.1244 73.3091 62.8761C72.6927 63.6245 71.7733 64.5004 70.8082 65.4208C69.4169 66.7394 67.8284 68.1535 67.0218 69.8989H64.0842V65.0609C64.0842 64.6386 63.8987 64.2335 63.5684 63.9349C63.2381 63.6362 62.7901 63.4685 62.3231 63.4685H51.7562C51.2891 63.4685 50.8412 63.6362 50.5109 63.9349C50.1806 64.2335 49.9951 64.6386 49.9951 65.0609V89.7825C49.9951 90.2049 50.1806 90.6099 50.5109 90.9086C50.8412 91.2072 51.2891 91.375 51.7562 91.375H62.3231C62.7901 91.375 63.2381 91.2072 63.5684 90.9086C63.8987 90.6099 64.0842 90.2049 64.0842 89.7825V87.5913H66.4723L66.1905 87.1008L66.1271 86.9829C66.2398 87.2314 66.3807 87.4575 66.5322 87.6677C66.5345 87.6677 66.5369 87.6677 66.5392 87.6677C66.7048 87.8907 66.8844 88.0913 67.0676 88.2633C67.0757 88.274 67.0839 88.2846 67.0922 88.2952C67.4976 88.6613 67.9756 88.9551 68.5011 89.1615C68.7829 89.2697 69.0718 89.3589 69.3676 89.4099C69.4141 89.4222 69.4611 89.4329 69.5085 89.4417C69.5966 89.4417 69.8537 89.5054 70.2623 89.5054H88.0251C88.1243 89.5055 88.2233 89.4981 88.321 89.4831H90.5224C92.9246 89.4831 94.4568 87.4511 94.4568 85.3969C94.4568 84.779 94.2807 84.1834 94.0236 83.6228C95.119 82.8648 95.8552 81.68 95.8552 80.3519C95.8552 79.6862 95.6333 79.0684 95.3268 78.4919C96.461 77.7434 97.25 76.5905 97.25 75.24C97.25 74.2718 96.8203 73.4087 96.1933 72.7016C96.8168 72.001 97.25 71.1474 97.25 70.1855C97.2408 69.1052 96.7613 68.0717 95.9155 67.3087C95.0697 66.5457 93.9256 66.1146 92.7309 66.1088H85.6723C85.1651 66.1115 84.6622 66.1934 84.1859 66.3509C83.9567 65.6566 83.6523 64.9845 83.2771 64.3443V60.8823C83.2771 57.4425 79.9662 54.7608 76.0811 54.7608H75.9226V54.7513ZM77.6837 58.484C78.8602 58.9841 79.7548 59.7835 79.7548 60.8855V64.5864C79.7542 64.6846 79.7636 64.7827 79.783 64.8794L79.8112 64.975C79.8455 65.1504 79.9122 65.3195 80.0084 65.475C81.2906 67.5006 81.5195 70.4021 80.5333 72.7112C79.547 75.0171 77.7119 76.2178 75.9296 76.2178H68.2405C67.7734 76.2178 67.3255 76.3856 66.9952 76.6842C66.6649 76.9829 66.4794 77.3879 66.4794 77.8103C66.4794 78.2327 66.6649 78.6377 66.9952 78.9363C67.3255 79.235 67.7734 79.4028 68.2405 79.4028H75.9296C77.7366 79.4028 79.4026 78.7753 80.7904 77.737L80.7939 77.7434C80.1599 78.4696 79.7548 79.3837 79.7548 80.3551C79.7548 81.2628 80.1282 82.1036 80.6847 82.8075C80.1071 83.5432 79.7548 84.4605 79.7548 85.4C79.7548 85.7153 79.8499 86.0147 79.9204 86.3237H70.2623C70.2834 86.3237 70.139 86.3237 70.0509 86.2918C69.9911 86.2918 69.9453 86.26 69.903 86.2472C69.8396 86.2154 69.7797 86.1931 69.7339 86.1644C69.6376 86.0984 69.5511 86.0213 69.4768 85.9351C69.4399 85.8858 69.4081 85.8336 69.3817 85.779C69.3624 85.739 69.3412 85.6997 69.3183 85.6612L69.107 85.2886C68.9585 85.0294 68.7341 84.8121 68.4583 84.6605C68.1825 84.5088 67.8659 84.4286 67.5431 84.4286H64.0842V73.0838H66.814C67.0332 73.3577 67.3432 73.5614 67.699 73.6654C68.0549 73.7694 68.438 73.7683 68.7931 73.6622C69.1482 73.5561 69.4567 73.3506 69.674 73.0754C69.8912 72.8002 70.006 72.4696 70.0016 72.1315C70.0016 71.2143 71.4493 69.4243 73.3584 67.6089C74.3094 66.7012 75.3132 65.7744 76.1375 64.7743C76.6588 64.1373 76.8384 63.3188 77.1237 62.5512C77.299 62.4042 77.4394 62.2264 77.5363 62.0288C77.6332 61.8311 77.6846 61.6176 77.6873 61.4014L77.6837 58.484ZM21.8168 62.7168V65.9018H46.8603V62.7168H21.8168ZM53.5174 66.6534H60.5619V88.19H53.5174V66.6534ZM85.6723 69.2906H92.7309C92.8632 69.2847 92.9955 69.3038 93.1191 69.3468C93.2428 69.3899 93.3551 69.4558 93.449 69.5403C93.5428 69.6249 93.6161 69.7262 93.6641 69.8379C93.7121 69.9495 93.7338 70.069 93.7277 70.1887C93.7332 70.3084 93.7112 70.4278 93.663 70.5394C93.6148 70.651 93.5416 70.7524 93.4479 70.8371C93.3542 70.9218 93.2422 70.988 93.1188 71.0315C92.9953 71.0751 92.8633 71.095 92.7309 71.0901H85.6723C85.5399 71.095 85.4078 71.0751 85.2844 71.0315C85.161 70.988 85.0489 70.9218 84.9552 70.8371C84.8616 70.7524 84.7883 70.651 84.7402 70.5394C84.692 70.4278 84.67 70.3084 84.6755 70.1887C84.6694 70.069 84.6911 69.9495 84.7391 69.8379C84.7871 69.7262 84.8604 69.6249 84.9542 69.5403C85.0481 69.4558 85.1604 69.3899 85.2841 69.3468C85.4077 69.3038 85.5399 69.2847 85.6723 69.2906ZM84.2352 74.3355H92.7732C93.3191 74.3355 93.7277 74.6986 93.7277 75.24C93.7277 75.7751 93.3191 76.1414 92.7732 76.1414H84.2317C83.6857 76.1414 83.2736 75.7751 83.2736 75.24C83.2736 74.6986 83.6857 74.3355 84.2317 74.3355H84.2352ZM83.9675 79.4505H91.6496C91.9384 79.4505 92.3329 79.7308 92.3329 80.3519C92.3329 80.973 91.9384 81.2469 91.6496 81.2469H83.9675C83.6751 81.2469 83.2771 80.9761 83.2771 80.3519C83.2771 79.7308 83.6751 79.4505 83.9675 79.4505ZM56.9164 81.8202C56.471 81.8484 56.0541 82.0286 55.75 82.3242C55.4459 82.6199 55.2774 83.0089 55.2785 83.4126C55.2785 83.835 55.4641 84.24 55.7943 84.5387C56.1246 84.8373 56.5726 85.0051 57.0396 85.0051C57.5067 85.0051 57.9547 84.8373 58.285 84.5387C58.6152 84.24 58.8008 83.835 58.8008 83.4126C58.8008 82.9903 58.6152 82.5852 58.285 82.2866C57.9547 81.9879 57.5067 81.8202 57.0396 81.8202C56.9986 81.8188 56.9574 81.8188 56.9164 81.8202ZM83.6892 84.4955H90.5224C90.526 84.4955 90.9345 84.6898 90.9345 85.3969C90.9345 86.1039 90.526 86.2982 90.5224 86.2982H83.6892C83.6857 86.2982 83.2771 86.1039 83.2771 85.3969C83.2771 84.6898 83.6857 84.4955 83.6892 84.4955Z" fill="url(#paint0_linear_181_52)"/>
</g>
<defs>
<linearGradient id="paint0_linear_181_52" x1="11.25" y1="48.375" x2="88.7402" y2="48.375" gradientUnits="userSpaceOnUse">
<stop stop-color="#802E00"/>
<stop offset="1" stop-color="#DEA204"/>
</linearGradient>
<clipPath id="clip0_181_52">
<rect width="86" height="86" fill="white" transform="translate(0.5)"/>
</clipPath>
</defs>
</svg>
